<?xml version="1.0" encoding="UTF-8"?>
<svg width="44px" height="44px" viewBox="0 0 44 44" version="1.1" xmlns="http://www.w3.org/2000/svg" xmlns:xlink="http://www.w3.org/1999/xlink">
    <!-- Generator: Sketch 52.1 (67048) - http://www.bohemiancoding.com/sketch -->
    <title>线路</title>
    <desc>Created with Sketch.</desc>
    <defs>
        <linearGradient x1="100%" y1="7.52294%" x2="23.4252077%" y2="93.2063604%" id="linearGradient-1">
            <stop stop-color="#ABC1FF" offset="0%"></stop>
            <stop stop-color="#9295FF" offset="100%"></stop>
        </linearGradient>
    </defs>
    <g id="线路" stroke="none" stroke-width="1" fill="none" fill-rule="evenodd">
        <path d="M20.8265781,22.4987043 L5.53355364,28.9982397 C4.51698418,29.4302817 4.04313106,30.6046134 4.47517308,31.6211828 C4.63556871,31.9985843 4.9080971,32.3175607 5.25583704,32.5348981 L20.4100032,42.006252 C21.382814,42.6142588 22.617186,42.6142588 23.5899968,42.006252 L38.744163,32.5348981 C39.680836,31.9494775 39.9655824,30.7155767 39.3801617,29.7789037 C39.1628242,29.4311637 38.8438478,29.1586353 38.4664464,28.9982397 L23.1734219,22.4987043 C22.4235953,22.180028 21.5764047,22.180028 20.8265781,22.4987043 Z" id="Path-14" fill="#DCE1FF"></path>
        <path d="M22,34 C20.7966832,34 9,26.7947752 9,15.7647059 C9,8.71495349 14.8202983,3 22,3 C29.1797017,3 35,8.71495349 35,15.7647059 C35,26.7681061 23.2033168,34 22,34 Z M22,21 C24.7614237,21 27,18.7614237 27,16 C27,13.2385763 24.7614237,11 22,11 C19.2385763,11 17,13.2385763 17,16 C17,18.7614237 19.2385763,21 22,21 Z" id="Oval-2" fill="url(#linearGradient-1)"></path>
    </g>
</svg>