<?xml version="1.0" encoding="UTF-8"?>
<svg width="44px" height="44px" viewBox="0 0 44 44" version="1.1" xmlns="http://www.w3.org/2000/svg" xmlns:xlink="http://www.w3.org/1999/xlink">
    <!-- Generator: Sketch 52.1 (67048) - http://www.bohemiancoding.com/sketch -->
    <title>门票</title>
    <desc>Created with Sketch.</desc>
    <defs>
        <linearGradient x1="100%" y1="-16.4834394%" x2="11.1097029%" y2="100%" id="linearGradient-1">
            <stop stop-color="#DA8CFF" offset="0%"></stop>
            <stop stop-color="#FF97A6" offset="100%"></stop>
        </linearGradient>
    </defs>
    <g id="门票" stroke="none" stroke-width="1" fill="none" fill-rule="evenodd">
        <path d="M38.4417347,29.2152831 C38.2959733,29.248292 38.1679848,29.2836396 38.0577693,29.3213261 C36.2998863,29.9224069 34.9098338,31.3167753 34.3146563,33.0773869 C34.279019,33.1828065 34.2455191,33.3045965 34.2141565,33.4427568 L34.214139,33.4427528 C34.0073839,34.3535632 33.1977589,35 32.2637765,35 L32.0091634,35 L12.0014839,35 L11.7348257,34.9999941 C10.8002563,34.9999941 9.99028528,34.3527658 9.78410811,33.4412226 C9.75020275,33.2913214 9.71384605,33.15997 9.67503801,33.0471686 C9.0839835,31.3291785 7.73478138,29.9639279 6.02706643,29.3510516 C5.89627154,29.304111 5.74113343,29.2604806 5.56165211,29.2201603 L5.56164676,29.2201841 C4.64872179,29.0150965 4,28.204472 4,27.2687942 L4,27 L4,17 L4.00002016,16.7304145 C4.00002016,15.7945847 4.64896198,14.9838771 5.56208255,14.7789669 C5.74775406,14.737301 5.90782036,14.6921336 6.04228145,14.6434646 C7.71934925,14.0364405 9.0486426,12.7031356 9.65023602,11.0234751 C9.69677503,10.8935373 9.74004785,10.7395471 9.78005448,10.5615044 L9.78007762,10.5615096 C9.98519849,9.64865437 10.7957812,9 11.7313982,9 L12,9 L32,9 L32.2672418,9.00001877 C33.2024927,9.00001877 34.0128615,9.64817496 34.2183512,10.5605719 C34.2559294,10.7274236 34.2964396,10.8724553 34.3398818,10.995667 C34.9440995,12.7093644 36.3045567,14.0663258 38.0204911,14.6657891 C38.1397858,14.7074649 38.2796436,14.7463947 38.4400643,14.7825786 L38.4400629,14.782585 C39.3521653,14.9883157 40,15.7985488 40,16.7335654 L40,17.0799535 L40,27.0234169 L40.0000189,27.2646561 C40.0000189,28.1990426 39.353046,29.0089096 38.4417347,29.2152831 Z M13.5,17 C12.6715729,17 12,17.6715729 12,18.5 C12,19.3284271 12.6715729,20 13.5,20 L30.5,20 C31.3284271,20 32,19.3284271 32,18.5 C32,17.6715729 31.3284271,17 30.5,17 L13.5,17 Z M13.5,24 C12.6715729,24 12,24.6715729 12,25.5 C12,26.3284271 12.6715729,27 13.5,27 L26.5,27 C27.3284271,27 28,26.3284271 28,25.5 C28,24.6715729 27.3284271,24 26.5,24 L13.5,24 Z" id="Rectangle-19" fill="url(#linearGradient-1)"></path>
        <rect id="Rectangle-21" fill="url(#linearGradient-1)" opacity="0.502622768" x="11" y="4" width="22" height="3" rx="1.5"></rect>
        <rect id="Rectangle-21-Copy" fill="url(#linearGradient-1)" opacity="0.502622768" x="11" y="37" width="22" height="3" rx="1.5"></rect>
    </g>
</svg>