<svg id="图层_1" data-name="图层 1" xmlns="http://www.w3.org/2000/svg" viewBox="0 0 50 50"><title>首页</title><g id="首页"><path id="Rectangle" d="M10.75,14.59l11-8.06a5.49,5.49,0,0,1,6.5,0l11,8.06A5.49,5.49,0,0,1,41.5,19V43A1.5,1.5,0,0,1,40,44.5H10A1.5,1.5,0,0,1,8.5,43V19A5.49,5.49,0,0,1,10.75,14.59ZM38.5,41.5V19a2.51,2.51,0,0,0-1-2l-11-8.07a2.52,2.52,0,0,0-3,0L12.52,17a2.51,2.51,0,0,0-1,2V41.5H18v-9a3,3,0,0,1,3-3h8a3,3,0,0,1,3,3v9ZM22,32a1,1,0,0,0-1,1v8.5h8V33a1,1,0,0,0-1-1Z" style="fill:#605f5f"/></g></svg>