<svg id="图层_1" data-name="图层 1" xmlns="http://www.w3.org/2000/svg" viewBox="0 0 50 50"><title>用户中心</title><g id="用户中心"><path id="Oval-7" d="M18,24.38a1.5,1.5,0,1,1,2.45-1.72,5.5,5.5,0,0,0,9,0,1.5,1.5,0,0,1,2.46,1.73,8.5,8.5,0,0,1-13.92,0ZM42,43.57a1.5,1.5,0,0,1-3,0c0-4.78-3.1-9.47-7.55-11.9a1.5,1.5,0,0,1-.1-2.57,11.5,11.5,0,1,0-12.67,0,1.5,1.5,0,0,1-.1,2.57A13.8,13.8,0,0,0,11,43.55a1.5,1.5,0,0,1-3,0,16.46,16.46,0,0,1,7.21-13.33,14.5,14.5,0,1,1,19.52,0A16.85,16.85,0,0,1,42,43.57Z" style="fill:#605f5f"/></g></svg>