<?xml version="1.0" encoding="UTF-8"?>
<svg width="34px" height="42px" viewBox="0 0 34 42" version="1.1" xmlns="http://www.w3.org/2000/svg" xmlns:xlink="http://www.w3.org/1999/xlink">
    <!-- Generator: Sketch 52.2 (67145) - http://www.bohemiancoding.com/sketch -->
    <title>路径</title>
    <desc>Created with Sketch.</desc>
    <g id="1.6.5-全民营销" stroke="none" stroke-width="1" fill="none" fill-rule="evenodd">
        <g id="01_个人中心" transform="translate(-37.000000, -966.000000)" fill="#454545" fill-rule="nonzero">
            <g id="Group-4-Copy-19" transform="translate(32.000000, 966.000000)">
                <path d="M26,3 L35.3196766,3 C36.9765308,3 38.3196766,4.34314575 38.3196766,6 C38.3196766,6.45039111 38.2182664,6.89500235 38.0229695,7.30084872 L34.0365722,15.5849786 C33.9045037,15.8594301 33.9047125,16.1791095 34.0371396,16.4533882 L38.0166481,24.6956199 C38.7370374,26.1876672 38.1114849,27.9812015 36.6194375,28.7015907 C36.212655,28.8979932 35.7667719,29 35.3150574,29 L23,29 C21.3431458,29 20,27.6568542 20,26 L8,26 C7.64936458,26 7.31277893,25.9398458 7,25.8292943 L7,41 C7,41.5522847 6.55228475,42 6,42 C5.44771525,42 5,41.5522847 5,41 L5,7 L5,3 C5,1.34314575 6.34314575,1.18793864e-14 8,1.15463195e-14 L23,1.15463195e-14 C24.6568542,1.12132525e-14 26,1.34314575 26,3 Z M22,26 C22,26.5522847 22.4477153,27 23,27 L35.3150574,27 C35.4656289,27 35.6142566,26.9659977 35.7498508,26.9005302 C36.2471999,26.6604005 36.4557174,26.0625557 36.2155876,25.5652066 L32.2360791,17.3229749 C31.8387979,16.5001388 31.8381713,15.5411007 32.2343769,14.7177461 L36.2207742,6.43361624 C36.2858732,6.29833412 36.3196766,6.15013037 36.3196766,6 C36.3196766,5.44771525 35.8719613,5 35.3196766,5 L26,5 L26,23 C26,24.6568542 24.6568542,26 23,26 L22,26 Z M7,7 L7,23 C7,23.5522847 7.44771525,24 8,24 L23,24 C23.5522847,24 24,23.5522847 24,23 L24,3 C24,2.44771525 23.5522847,2 23,2 L8,2 C7.44771525,2 7,2.44771525 7,3 L7,7 Z" id="路径"></path>
            </g>
        </g>
    </g>
</svg>